<svg width="32" height="32" viewBox="0 0 32 32" fill="none" xmlns="http://www.w3.org/2000/svg">
<g clip-path="url(#clip0_638_6292)">
<path d="M21.0489 17.4094C20.9098 17.2709 20.7285 17.2021 20.5472 17.2021C20.3659 17.2021 20.1807 17.2725 20.0408 17.4126C19.7938 17.6598 19.5515 17.9102 19.3163 18.1636L19.2233 18.2184L13.7769 12.7386L12.7445 11.788L7.25659 17.3022C3.99764 21.2243 7.54654 27.0311 12.5499 25.8427C14.2794 25.4327 15.3868 24.0667 16.6052 22.8712C17.6712 21.8252 18.7012 20.7369 19.7579 19.6799C20.1775 19.2613 20.6066 18.8435 21.0396 18.4242C21.3256 18.148 21.3295 17.6911 21.0489 17.4094ZM14.0676 23.4173C10.3374 26.7925 5.395 22.2031 8.27336 18.281C9.72465 16.7413 11.2517 15.2712 12.7452 13.7714L18.2198 19.2512L14.0676 23.4173Z" fill="#512D85"/>
<path d="M20.2048 8.27202C21.2388 8.16561 22.7682 8.71563 23.2246 9.71864C23.4919 10.307 23.0027 10.8382 22.3876 10.7123C22.1321 10.6598 21.9031 10.2507 21.696 10.0762C21.1622 9.62632 20.4158 9.53948 19.7844 9.84304C19.5483 9.95648 19.4194 10.1388 19.2271 10.2616C18.5441 10.699 17.7837 9.88842 18.2799 9.23591C18.6551 8.74301 19.5999 8.33383 20.204 8.27202H20.2048Z" fill="#1CC07D"/>
<path d="M24.35 15.1171C23.9178 15.5849 23.4669 16.0473 23.0066 16.5074C22.869 16.6451 22.6885 16.7139 22.5072 16.7139C22.3259 16.7139 22.1446 16.6443 22.0062 16.5058C21.7272 16.2273 21.7296 15.7735 22.0117 15.4981C22.4806 15.0404 22.9409 14.5788 23.3747 14.1016C25.8982 11.3272 24.0507 7.0836 20.3611 7.41298C19.4069 7.49826 18.566 7.95517 17.8899 8.61159L13.7768 12.7386L12.7444 11.7881L16.9537 7.55929C19.8 4.69655 24.7439 5.95462 25.8029 9.872C26.3515 11.8999 25.7216 13.6306 24.35 15.1171Z" fill="#1CC07D"/>
</g>
<path d="M27.09 22H27" stroke="#512D85" stroke-width="2.5" stroke-linecap="round" stroke-linejoin="round"/>
<path d="M8.09 9H8" stroke="#512D85" stroke-width="2" stroke-linecap="round" stroke-linejoin="round"/>
<path d="M14.495 4.14422C14.4399 4.23357 13.4428 4.55674 13.3421 4.67555C13.1871 4.85614 13.0607 5.61654 12.9001 5.89408C12.8231 6.0262 12.6872 6.04141 12.6016 5.9226C12.4458 5.70684 12.3279 4.87135 12.153 4.6746C12.0256 4.53202 11.327 4.34478 11.1179 4.1908C10.5913 3.80299 11.9886 3.51785 12.1663 3.3325C12.2823 3.21179 12.461 2.34684 12.595 2.12347C12.7404 1.88014 12.8592 2.04173 12.9467 2.22042C13.0873 2.50747 13.1662 3.06066 13.3421 3.29638C13.5179 3.5321 14.3211 3.68513 14.457 3.84196C14.5102 3.90375 14.5359 4.07959 14.496 4.14327L14.495 4.14422Z" stroke="#1CC07D" stroke-width="1.04554" stroke-miterlimit="10"/>
<defs>
<clipPath id="clip0_638_6292">
<rect width="20" height="20" fill="white" transform="translate(6 6)"/>
</clipPath>
</defs>
</svg>
