<svg width="32" height="32" viewBox="0 0 32 32" fill="none" xmlns="http://www.w3.org/2000/svg">
<path d="M6.68992 8.96498C5.20825 10.925 4.33325 13.3633 4.33325 16C4.33325 22.44 9.55992 27.6666 15.9999 27.6666C22.4399 27.6666 27.6666 22.44 27.6666 16C27.6666 9.55998 22.4399 4.33331 15.9999 4.33331" stroke="#1CC07D" stroke-width="1.75" stroke-linecap="round" stroke-linejoin="round"/>
<path d="M7.83325 16C7.83325 20.515 11.4849 24.1666 15.9999 24.1666C20.5149 24.1666 24.1666 20.515 24.1666 16C24.1666 11.485 20.5149 7.83331 15.9999 7.83331" stroke="#512D85" stroke-width="1.75" stroke-linecap="round" stroke-linejoin="round"/>
<path d="M16 20.6666C18.5783 20.6666 20.6667 18.5783 20.6667 16C20.6667 13.4216 18.5783 11.3333 16 11.3333" stroke="#1CC07D" stroke-width="1.75" stroke-linecap="round" stroke-linejoin="round"/>
</svg>