<svg width="20" height="20" viewBox="0 0 32 32" fill="none" xmlns="http://www.w3.org/2000/svg">
<g clip-path="url(#clip0_638_6280)">
<path d="M22.8229 10.1009C22.5602 10.1741 22.2985 10.2505 22.0379 10.3238C21.1418 9.20483 20.205 8.11725 19.1624 7.13121C18.6275 6.62562 17.0783 5.15284 16.4419 5.03665C16.0651 4.96756 15.683 4.99583 15.3271 5.12981C14.7692 5.34021 13.3299 6.70622 12.8275 7.18354C11.742 8.21564 10.7675 9.35765 9.84631 10.5363C9.21093 10.2872 8.57346 10.0244 7.90877 9.85382C6.78455 9.56387 5.42272 9.20169 4.52566 10.1605C4.29223 10.4096 4.07136 10.8723 4.03682 11.2156C4.11533 15.5733 3.41296 19.5101 5.84561 23.3789C7.33305 25.7436 9.46006 27.3723 11.8226 28.2453V26.4135C9.38783 25.373 7.3676 23.247 6.40353 20.7798C5.24896 17.8175 5.8655 14.581 5.70849 11.4742C5.76711 10.999 6.71547 11.3067 7.06194 11.381C10.063 12.0227 12.6725 14.0586 14.0595 16.7844C13.9245 17.0293 13.7936 17.2753 13.668 17.5223L15.1575 15.2697C14.3463 14.0356 13.4294 12.9543 12.2779 12.0269C12.0403 11.8364 11.6446 11.626 11.4499 11.4428C11.4123 11.4072 11.3453 11.3978 11.3652 11.3235C12.28 10.1364 13.2964 9.03525 14.3976 8.02095C14.7776 7.67133 15.3899 7.07154 15.7856 6.79206C15.839 6.75437 15.8882 6.70727 15.9552 6.69576C16.0002 6.68738 16.0431 6.68215 16.0871 6.69576C17.6677 7.97384 19.1792 9.37754 20.4154 11.0063C20.0846 11.178 19.7601 11.3611 19.4419 11.5527L22.8229 10.1009Z" fill="#512D85"/>
<path d="M26.5462 22.7958C26.3924 23.0795 26.1045 23.2302 25.8146 23.2302C25.6042 23.2302 25.3927 23.1517 25.2284 22.9874C24.9688 22.7278 24.9081 22.3279 25.085 22.0066C25.4335 21.3712 25.7172 20.6898 25.9266 19.9685C26.7022 17.2983 26.1736 14.2857 26.3337 11.5265C26.3275 11.4448 26.3243 11.3108 26.2668 11.2533C26.1401 11.1266 25.6157 11.226 25.4231 11.248C18.9342 11.9965 13.824 17.6552 13.5099 24.143C13.4744 24.86 13.422 26.1894 13.5058 26.8667C13.5141 26.9274 13.5016 26.9776 13.5602 27.0216C13.6753 27.1085 15.0822 27.2937 15.3146 27.3084C18.145 27.4769 20.8467 26.5202 22.8669 24.7585C23.0281 24.6172 23.2291 24.5471 23.428 24.5471C23.6425 24.5471 23.8561 24.6287 24.0183 24.7909C24.3627 25.1353 24.3407 25.6953 23.9775 26.0177C20.585 29.0282 15.8599 29.739 11.8226 28.2452V26.4134C11.8226 26.4134 11.8299 26.4166 11.8341 26.4187C11.8278 26.1591 11.8236 25.8995 11.8226 25.6409V25.6325C11.8163 24.1849 11.9032 22.7676 12.2256 21.3408C12.5323 19.9905 13.0452 18.7397 13.668 17.5223L15.1575 15.2697C16.3393 13.7707 17.8069 12.5366 19.4377 11.5547H19.4398L19.4419 11.5526L22.8229 10.1008C23.6247 9.87469 24.436 9.66429 25.265 9.57218C26.6331 9.42144 27.6642 9.69255 28.0012 11.1674C27.9656 15.3932 28.5225 19.1657 26.5462 22.7958Z" fill="#1CC07D"/>
</g>
</svg>

