<svg width="20" height="20" viewBox="0 0 32 32" fill="none" xmlns="http://www.w3.org/2000/svg">
<g clip-path="url(#clip0_638_6286)">
<path d="M21.3916 12.6544C21.3428 12.6666 21.2796 12.6944 21.2131 12.7243L22.4617 12.4881C22.1113 12.5103 21.7565 12.5635 21.3916 12.6544ZM12.4072 9.1525C10.8392 9.87107 8.12352 11.6764 8.35307 13.6691L9.50966 17.6335C9.43425 17.7055 8.59813 17.5747 8.43291 17.5769C6.68637 17.5902 3.48495 18.077 2.99259 20.1141C2.49691 22.1611 2.39267 24.4954 1.97461 26.5768C2.30839 29.6019 6.8139 30.1054 9.20804 29.9834C11.2019 29.8836 15.1784 29.0375 14.9844 26.3617L14.1615 21.4548C15.0564 21.3882 15.9735 21.0999 16.7919 20.7362L16.7664 19.4909C16.5801 19.7215 14.0473 20.459 13.9398 20.347C13.7712 18.8455 12.0735 18.1846 10.796 17.843L9.53516 13.7057C9.41429 13.2355 9.6516 12.7853 9.90665 12.4105C10.7949 11.1097 13.1857 9.8866 14.7049 9.56723C15.4346 9.4142 16.7775 9.2523 17.3419 9.83115L20.0033 13.5394L20.0221 13.7157L20.8627 12.7908L18.2579 9.13587C16.9238 7.59226 14.0019 8.42284 12.4072 9.1525ZM12.0191 19.5275C12.3928 19.7481 12.7 20.0143 12.8175 20.4456C13.1458 21.6566 13.3287 23.3743 13.535 24.6562C13.6204 25.1874 13.7845 25.8449 13.8222 26.3617C13.8621 26.9217 13.6592 27.2455 13.2489 27.6015C11.3693 29.236 5.69833 29.2227 3.77992 27.6547C3.48827 27.4174 3.23988 27.1102 3.14562 26.7387C3.404 24.522 3.77992 22.2964 4.2013 20.1052C5.04962 19.0872 6.62982 18.8255 7.89287 18.7579C9.16811 18.688 10.9013 18.8666 12.0191 19.5275Z" fill="#512D85"/>
<path d="M9.44521 5.11164C9.38089 5.21588 8.21765 5.59291 8.1001 5.73152C7.91935 5.94221 7.77186 6.82934 7.58446 7.15314C7.49464 7.30728 7.33606 7.32502 7.23626 7.18641C7.0544 6.93469 6.91689 5.95995 6.71285 5.73041C6.56426 5.56407 5.74921 5.34562 5.50525 5.16597C4.89091 4.71354 6.52101 4.38087 6.72838 4.16463C6.86367 4.0238 7.07214 3.01469 7.2285 2.75409C7.39816 2.47021 7.53678 2.65873 7.6388 2.8672C7.80291 3.20209 7.89495 3.84748 8.1001 4.12249C8.30525 4.3975 9.24228 4.57603 9.40085 4.759C9.46295 4.83108 9.49289 5.03623 9.44632 5.11053L9.44521 5.11164Z" fill="#1CC07D" stroke="#1CC07D" stroke-width="1.2198" stroke-miterlimit="10"/>
<path d="M25.1665 8.12453C24.9924 7.95043 24.0786 7.8229 24.1906 7.48136C24.245 7.31502 25.0157 7.13649 25.1665 6.98789C25.3173 6.8393 25.4016 6.20057 25.5568 5.96659C25.6067 5.89118 25.6411 5.80247 25.7609 5.84128C25.8806 5.88009 26.0736 6.81934 26.2299 6.97791C26.3863 7.13649 27.0428 7.28952 27.1758 7.41593C27.514 7.73973 26.3785 7.96928 26.2077 8.16667C26.0747 8.3208 25.8884 9.23011 25.7586 9.27003C25.4459 9.36651 25.345 8.30195 25.1665 8.12453Z" stroke="#512D85" stroke-width="1.2198" stroke-miterlimit="10"/>
<path d="M18.5208 2.80618C20.091 2.48571 20.274 4.76563 18.8335 4.83882C17.6126 4.90092 17.3919 3.03684 18.5208 2.80618Z" fill="#1CC07D"/>
<path d="M4.34566 12.3827C4.85243 12.2774 5.07422 12.9816 4.65727 13.1967C4.01853 13.5249 3.72911 12.5114 4.34566 12.3827Z" fill="#512D85"/>
<path d="M21.7961 15.8326C21.8256 15.8436 21.8606 15.8613 21.8997 15.8844C21.9778 15.9307 22.068 15.9969 22.1604 16.069C22.2526 16.141 22.3454 16.2174 22.429 16.2858L22.6418 16.4508C23.7175 17.1698 25.0513 17.7414 26.3215 18.0035C26.4063 18.0211 26.5315 18.0347 26.6682 18.0494C26.8064 18.0643 26.9595 18.0809 27.1047 18.1051C27.2506 18.1294 27.3859 18.1604 27.4885 18.2037C27.5939 18.2482 27.6509 18.2996 27.6663 18.3531C27.6894 18.4331 27.6902 18.4936 27.679 18.5387C27.668 18.5825 27.6445 18.6159 27.6096 18.6422C27.5357 18.6978 27.4103 18.7226 27.2551 18.7233C26.9472 18.7246 26.576 18.634 26.4084 18.6041C25.1069 18.3692 23.6421 17.7999 22.5364 17.0778C22.4316 17.0091 22.1736 16.8294 21.9368 16.6432C21.8182 16.5499 21.7059 16.4558 21.6213 16.3737C21.579 16.3325 21.5445 16.2952 21.5198 16.2633C21.4938 16.2299 21.4831 16.2081 21.4807 16.1969C21.4638 16.1174 21.4843 16.0266 21.5334 15.9528C21.5823 15.8793 21.6549 15.8287 21.7336 15.8199C21.7453 15.8187 21.7658 15.8214 21.7961 15.8326Z" fill="#1CC07D" stroke="#1CC07D" stroke-width="0.110891"/>
<path d="M23.5725 20.8555C23.6735 20.8331 23.7454 20.8376 23.7952 20.8565C23.8431 20.8747 23.8759 20.9084 23.8977 20.9561C23.9438 21.0574 23.9378 21.22 23.8938 21.4053C23.8505 21.5873 23.7734 21.779 23.6936 21.9317C23.6537 22.0081 23.6137 22.0743 23.5774 22.1231C23.5586 22.1484 23.5421 22.1673 23.5286 22.1807L23.4963 22.2061C23.3986 22.2516 23.2939 22.2264 23.2122 22.1592C23.1295 22.0913 23.079 21.9869 23.0881 21.8887V21.8878C23.0883 21.8869 23.0888 21.8853 23.0891 21.8839C23.0896 21.881 23.09 21.8774 23.0911 21.8731C23.0933 21.8638 23.0968 21.8513 23.1008 21.837C23.1089 21.8085 23.1204 21.7719 23.134 21.7296C23.1615 21.6443 23.1977 21.5368 23.2356 21.4297C23.2735 21.3226 23.3133 21.2152 23.3459 21.1299C23.3795 21.0424 23.4039 20.9832 23.4133 20.9669C23.4345 20.9303 23.4556 20.9074 23.4788 20.8917C23.5023 20.8758 23.5315 20.8646 23.5725 20.8555Z" fill="#1CC07D" stroke="#1CC07D" stroke-width="0.110891"/>
<path d="M26.2524 20.8824C26.3175 20.9104 26.3559 20.9706 26.3716 21.0631C26.3873 21.1566 26.3783 21.2751 26.3521 21.402C26.2997 21.6555 26.1856 21.9238 26.1167 22.0514C26.0685 22.1406 25.9776 22.2088 25.8804 22.235C25.7839 22.2608 25.6884 22.2442 25.6216 22.1774C25.6144 22.1702 25.6021 22.1455 25.5952 22.0914C25.5888 22.0409 25.5881 21.9751 25.5942 21.899C25.6065 21.7471 25.6444 21.5607 25.7046 21.3873C25.7651 21.213 25.8468 21.0572 25.9429 20.9606C25.9904 20.9129 26.0394 20.8815 26.0894 20.8678C26.1385 20.8543 26.1925 20.8568 26.2524 20.8824Z" fill="#1CC07D" stroke="#1CC07D" stroke-width="0.110891"/>
<path d="M5.34127 21.5745C5.48654 21.5335 6.50452 21.8839 6.78507 21.9371C8.40075 22.2432 9.99869 22.1423 11.5833 21.7309C12.5026 22.3696 11.0621 22.577 10.5731 22.6568C9.22135 22.8808 7.63228 22.8464 6.29715 22.5348C6.02768 22.4716 5.22372 22.2875 5.12059 22.048C5.04741 21.8783 5.17382 21.6222 5.34127 21.5745Z" fill="#512D85"/>
<path d="M10.8802 24.2326C11.113 24.1849 11.2971 24.2936 11.3337 24.5309C11.3814 24.8325 11.4136 26.0867 10.807 25.7207C10.5242 25.55 10.4932 24.3113 10.8791 24.2326H10.8802Z" fill="#512D85"/>
<path d="M8.32638 25.5655C8.50935 25.5455 8.65683 25.6719 8.68123 25.8538C8.7023 26.0068 8.70452 26.8352 8.66792 26.9527C8.58254 27.2355 8.06135 27.1889 8.01145 26.7997C7.97153 26.4936 7.91497 25.6098 8.32638 25.5655Z" fill="#512D85"/>
<path d="M17.1946 11.6664C17.4629 11.9347 17.0848 12.2585 16.9018 12.4271C15.814 13.4251 12.8898 14.8489 11.4183 14.7558C10.9847 14.7281 10.9193 14.361 11.2408 14.1315C13.1193 13.9197 14.7905 13.149 16.2919 12.039C16.5048 11.8815 16.8985 11.3714 17.1935 11.6664H17.1946Z" fill="#512D85"/>
<path d="M24.9169 12.7775C24.0752 12.5612 23.2801 12.4381 22.4617 12.488L21.2131 12.7242C21.0845 12.7808 20.9414 12.8418 20.8627 12.7908L20.0221 13.7156C19.0618 15.4522 17.9839 17.1299 17.0314 18.8698C16.9382 19.0417 16.8484 19.3899 16.7664 19.4908L16.7919 20.7361C17.7555 23.005 20.4247 24.4155 22.6891 25.0808C24.6784 25.6663 27.9896 26.1531 29.0287 23.8344C29.2871 21.7951 30.1753 19.4453 30.3239 17.4327C30.5024 15.0274 26.8586 13.2743 24.9169 12.7775ZM29.1618 17.4338C29.0076 19.2945 28.1892 21.4436 27.9786 23.3376C27.769 24.0263 26.9151 24.3345 26.2609 24.3878C24.1384 24.5619 21.4726 23.6359 19.7371 22.4405C18.9054 21.8683 17.5049 20.6762 17.9717 19.5341L21.0601 14.2046C21.4171 13.7467 22.0692 13.6225 22.6236 13.608C24.0863 13.5681 26.0435 14.2401 27.2811 15.0086C28.0917 15.512 29.2494 16.3714 29.1618 17.4338Z" fill="#1CC07D"/>
<path d="M20.8628 12.7908L21.2132 12.7243C21.0846 12.7809 20.9415 12.8418 20.8628 12.7908Z" fill="#512D85"/>
</g>
</svg>

