<svg width="32" height="32" viewBox="0 0 32 32" fill="none" xmlns="http://www.w3.org/2000/svg">
<path d="M26.5002 15.4166C26.5002 21.5416 21.5418 26.5 15.4168 26.5C9.29183 26.5 4.3335 21.5416 4.3335 15.4166C4.3335 9.29165 9.29183 4.33331 15.4168 4.33331" stroke="#512D85" stroke-width="1.75" stroke-linecap="round" stroke-linejoin="round"/>
<path d="M27.6668 27.6666L25.3335 25.3333" stroke="#512D85" stroke-width="1.75" stroke-linecap="round" stroke-linejoin="round"/>
<path d="M18.9166 9.15168C18.5082 7.86835 18.9866 6.27001 20.3399 5.83835C21.0516 5.60501 21.9266 5.80335 22.4282 6.49168C22.8949 5.78001 23.8049 5.61668 24.5049 5.83835C25.8582 6.27001 26.3366 7.86835 25.9282 9.15168C25.2866 11.1933 23.0466 12.255 22.4282 12.255C21.7982 12.255 19.5816 11.2167 18.9166 9.15168Z" stroke="#1CC07D" stroke-width="1.75" stroke-linecap="round" stroke-linejoin="round"/>
</svg>