<svg width="32" height="32" viewBox="0 0 32 32" fill="none" xmlns="http://www.w3.org/2000/svg">
<g clip-path="url(#clip0_638_6283)">
<path d="M6.2915 3.0155C8.21399 2.79276 9.30149 4.99874 10.6308 6.03146C11.467 5.39182 11.7505 4.55802 13 4.73074C13.8528 4.84866 15.0428 6.56747 15.742 7.11062C15.8718 7.28215 15.873 7.52752 15.742 7.70143L13.5074 9.936L13.4562 10.0492L21.2188 17.8344C21.2676 17.9297 21.3188 18.0452 21.3117 18.1536C21.2903 18.4729 19.9764 19.5163 19.7382 19.857C19.5369 19.9773 19.2665 19.9284 19.1081 19.7652L11.3967 12.0526L8.98584 14.4647C8.7631 14.6755 8.53559 14.6577 8.29975 14.4933C7.95909 14.2574 6.58333 12.8519 6.30579 12.4969C5.84125 11.9014 5.78765 11.095 6.24504 10.4732C6.37964 10.2898 7.27418 9.52625 7.25274 9.40951L4.73111 6.86525C3.59239 5.43351 4.47502 3.22634 6.2915 3.0155ZM6.34867 3.96603C5.47081 4.10539 4.88239 5.18932 5.30881 5.98977C6.09377 6.97245 7.07169 7.80625 7.95075 8.71151C8.09607 8.73652 8.86435 7.73954 9.13235 7.6383C9.47183 7.50965 9.82202 7.84555 9.74936 8.19575C9.68623 8.49711 7.51598 10.4291 7.1372 10.8889C6.90255 11.1736 6.77033 11.4571 6.99188 11.8108C7.11576 12.0074 8.28784 13.1664 8.50582 13.3343C8.54989 13.3688 8.57609 13.4308 8.64875 13.4177L14.6378 7.38459C14.1268 6.96888 13.5789 6.15533 13.0643 5.79799C12.7605 5.58716 12.489 5.63838 12.2067 5.83373C11.8469 6.08268 11.0132 7.19281 10.6737 7.21068C10.52 7.21902 10.3533 7.10943 10.2342 7.02129C9.29197 6.31733 8.38194 4.90941 7.43141 4.2257C7.10623 3.99104 6.74651 3.90409 6.34867 3.96722V3.96603ZM12.7153 10.746L12.0828 11.3665L19.4964 18.7802C19.5941 18.6325 20.1754 18.2215 20.0956 18.0667L12.7153 10.7448V10.746Z" fill="#512D85"/>
<path d="M21.8476 19.3113C22.1847 19.2422 22.3253 19.49 22.4837 19.7223C23.433 21.1159 24.6777 23.3397 25.4472 24.8584C26.3715 26.6821 26.1595 28.7523 24.5122 30.0792C21.1877 32.7557 16.4994 29.1263 18.298 25.1753C19.1521 23.3004 20.6053 21.4542 21.5165 19.5793C21.5868 19.4662 21.7142 19.3387 21.8476 19.3113ZM21.9238 20.7312L19.1128 25.6934C17.4904 31.8206 27.1458 31.0666 24.5741 25.2563L21.9238 20.7312Z" fill="#1CC07D"/>
<path d="M10.4504 18.1027C11.7034 17.8477 12.2517 19.5524 11.2208 20.0732C9.64153 20.8678 8.92592 18.4141 10.4504 18.1027Z" fill="#1CC07D"/>
</g>
<path d="M24.495 10.1442C24.4399 10.2336 23.4428 10.5567 23.3421 10.6755C23.1871 10.8561 23.0607 11.6165 22.9001 11.8941C22.8231 12.0262 22.6872 12.0414 22.6016 11.9226C22.4458 11.7068 22.3279 10.8713 22.153 10.6746C22.0256 10.532 21.327 10.3448 21.1179 10.1908C20.5913 9.80299 21.9886 9.51785 22.1663 9.3325C22.2823 9.21179 22.461 8.34684 22.595 8.12347C22.7404 7.88014 22.8592 8.04173 22.9467 8.22042C23.0873 8.50747 23.1662 9.06066 23.3421 9.29638C23.5179 9.5321 24.3211 9.68513 24.457 9.84196C24.5102 9.90375 24.5359 10.0796 24.496 10.1433L24.495 10.1442Z" stroke="#1CC07D" stroke-width="1.04554" stroke-miterlimit="10"/>
<path d="M14.4855 24.6069C14.4463 24.6739 13.7372 24.916 13.6656 25.0051C13.5554 25.1404 13.4655 25.7103 13.3512 25.9183C13.2965 26.0173 13.1998 26.0287 13.139 25.9396C13.0281 25.7779 12.9443 25.1518 12.82 25.0044C12.7294 24.8975 12.2326 24.7572 12.0839 24.6418C11.7094 24.3512 12.703 24.1375 12.8294 23.9986C12.9119 23.9081 13.039 23.2599 13.1343 23.0925C13.2377 22.9102 13.3222 23.0313 13.3844 23.1652C13.4844 23.3803 13.5405 23.7949 13.6656 23.9715C13.7906 24.1482 14.3618 24.2629 14.4584 24.3804C14.4963 24.4267 14.5145 24.5585 14.4862 24.6062L14.4855 24.6069Z" stroke="#512D85" stroke-width="0.522772" stroke-miterlimit="10"/>
<path d="M25.3833 14.012C25.9529 13.8936 26.2022 14.685 25.7335 14.9268C25.0156 15.2958 24.6903 14.1566 25.3833 14.012Z" fill="#512D85"/>
<defs>
<clipPath id="clip0_638_6283">
<rect width="21.7704" height="28" fill="white" transform="translate(4.22241 3)"/>
</clipPath>
</defs>
</svg>
