<svg width="32" height="32" viewBox="0 0 32 32" fill="none" xmlns="http://www.w3.org/2000/svg">
<g clip-path="url(#clip0_638_6289)">
<path d="M19.5321 25.4702V27.8308C19.5321 29.2179 18.3976 30.3523 17.0106 30.3523H10.927C9.53998 30.3523 8.40552 29.2179 8.40552 27.8308V17.8722C8.40552 16.4852 9.53998 15.3507 10.927 15.3507H17.0106C18.3976 15.3507 19.5321 16.4852 19.5321 17.8722V22.5644" stroke="#512D85" stroke-width="1.29529" stroke-linecap="round" stroke-linejoin="round"/>
<path d="M11.9072 13.0884V11.2739C11.9072 10.5377 12.5095 9.93542 13.2457 9.93542H15.6107C16.3468 9.93542 16.9491 10.5377 16.9491 11.2739V15.3508" stroke="#512D85" stroke-width="1.29529" stroke-linecap="round" stroke-linejoin="round"/>
<path d="M13.0254 9.93545V7.81657C13.0254 7.44849 13.3611 7.14734 13.7702 7.14734H15.086C15.4962 7.14734 15.8308 7.44849 15.8308 7.81657V9.8545" stroke="#512D85" stroke-width="1.29529" stroke-miterlimit="10"/>
<path d="M9.00781 1.53979C9.00781 2.82105 10.0462 3.86052 11.3285 3.86052H13.2618C14.1393 3.86052 14.8517 4.57185 14.8517 5.45049" stroke="#1CC07D" stroke-width="1.07941" stroke-linecap="round" stroke-linejoin="round"/>
<path d="M13.2198 18.0795H11.6082C11.1945 18.0795 10.8591 18.4149 10.8591 18.8286V23.1344C10.8591 23.5481 11.1945 23.8835 11.6082 23.8835H13.2198C13.6335 23.8835 13.9689 23.5481 13.9689 23.1344V18.8286C13.9689 18.4149 13.6335 18.0795 13.2198 18.0795Z" stroke="#1CC07D" stroke-width="1.29529" stroke-miterlimit="10"/>
</g>
<path d="M24.09 10H24" stroke="#1CC07D" stroke-width="2.5" stroke-linecap="round" stroke-linejoin="round"/>
<path d="M26.495 17.1442C26.4399 17.2336 25.4428 17.5567 25.3421 17.6755C25.1871 17.8561 25.0607 18.6165 24.9001 18.8941C24.8231 19.0262 24.6872 19.0414 24.6016 18.9226C24.4458 18.7068 24.3279 17.8713 24.153 17.6746C24.0256 17.532 23.327 17.3448 23.1179 17.1908C22.5913 16.803 23.9886 16.5178 24.1663 16.3325C24.2823 16.2118 24.461 15.3468 24.595 15.1235C24.7404 14.8801 24.8592 15.0417 24.9467 15.2204C25.0873 15.5075 25.1662 16.0607 25.3421 16.2964C25.5179 16.5321 26.3211 16.6851 26.457 16.842C26.5102 16.9037 26.5359 17.0796 26.496 17.1433L26.495 17.1442Z" stroke="#512D85" stroke-width="1.04554" stroke-miterlimit="10"/>
<path d="M6.09 9H6" stroke="#512D85" stroke-width="2" stroke-linecap="round" stroke-linejoin="round"/>
<path d="M6.09 9H6" stroke="#512D85" stroke-width="2" stroke-linecap="round" stroke-linejoin="round"/>
<defs>
<clipPath id="clip0_638_6289">
<rect width="12.4218" height="30" fill="white" transform="translate(7.75781 1)"/>
</clipPath>
</defs>
</svg>
