<svg width="32" height="32" viewBox="0 0 32 32" fill="none" xmlns="http://www.w3.org/2000/svg">
<path d="M20.3551 16.3033C23.6568 16.3033 26.3401 13.62 26.3401 10.3183C26.3401 7.01665 23.6568 4.33331 20.3551 4.33331C17.0535 4.33331 14.3701 7.01665 14.3701 10.3183C14.3701 11.835 14.9301 13.2116 15.8634 14.2616" stroke="#512D85" stroke-width="1.75" stroke-miterlimit="10" stroke-linecap="round" stroke-linejoin="round"/>
<path d="M5.99341 21.0867C5.99341 23.07 7.60339 24.68 9.58673 24.68C11.5701 24.68 13.1801 23.07 13.1801 21.0867C13.1801 19.1033 11.5701 17.4933 9.58673 17.4933" stroke="#1CC07D" stroke-width="1.75" stroke-miterlimit="10" stroke-linecap="round" stroke-linejoin="round"/>
<path d="M21.5567 27.6667C23.2062 27.6667 24.5434 26.3295 24.5434 24.68C24.5434 23.0305 23.2062 21.6934 21.5567 21.6934C19.9072 21.6934 18.5701 23.0305 18.5701 24.68C18.5701 26.3295 19.9072 27.6667 21.5567 27.6667Z" stroke="#512D85" stroke-width="1.75" stroke-miterlimit="10"/>
<path d="M30.7863 4.32291C30.7266 4.4197 29.6464 4.7698 29.5373 4.89851C29.3694 5.09415 29.2325 5.91792 29.0584 6.21859C28.975 6.36172 28.8278 6.37819 28.7351 6.24948C28.5662 6.01574 28.4386 5.11063 28.2491 4.89748C28.1111 4.74303 27.3543 4.54017 27.1277 4.37336C26.5573 3.95324 28.071 3.64433 28.2635 3.44354C28.3891 3.31277 28.5827 2.37574 28.7279 2.13376C28.8855 1.87015 29.0142 2.0452 29.1089 2.23879C29.2613 2.54976 29.3468 3.14904 29.5373 3.40441C29.7277 3.65978 30.5978 3.82556 30.7451 3.99546C30.8028 4.06239 30.8306 4.25289 30.7873 4.32188L30.7863 4.32291Z" stroke="#512D85" stroke-width="1.13267" stroke-miterlimit="10"/>
<path d="M5.98257 15.1425C5.93553 15.2318 5.08465 15.5547 4.99867 15.6734C4.86646 15.8539 4.75858 16.6137 4.6215 16.891C4.5558 17.023 4.43981 17.0382 4.3668 16.9195C4.23378 16.7039 4.1332 15.8691 3.98395 15.6725C3.87526 15.53 3.27908 15.3429 3.10063 15.1891C2.65127 14.8016 3.84363 14.5166 3.99531 14.3314C4.09426 14.2108 4.24676 13.3466 4.36113 13.1234C4.48523 12.8802 4.58662 13.0417 4.66124 13.2202C4.78129 13.5071 4.84862 14.0598 4.99867 14.2954C5.14873 14.5309 5.83414 14.6838 5.95013 14.8405C5.99555 14.9022 6.01745 15.0779 5.98338 15.1416L5.98257 15.1425Z" stroke="#1CC07D" stroke-width="0.566337" stroke-miterlimit="10"/>
<path d="M8.84821 10.026C10.1087 9.76944 10.6603 11.4843 9.62324 12.0082C8.03456 12.8075 7.31469 10.3392 8.84821 10.026Z" fill="#512D85"/>
<path d="M27.8482 18.026C29.1087 17.7694 29.6603 19.4843 28.6232 20.0082C27.0346 20.8075 26.3147 18.3392 27.8482 18.026Z" fill="#1CC07D"/>
</svg>
